# xmcd
#
# Track frame offsets: 
#        150
#        21319
#        43611
#        66640
#        86116
#        103929
#        121890
#        142242
#        164491
#        186883
#        211152
#        230825
#        253138
#        272933
#        293209
#        313884
#
# Disc length: 4397 seconds
#
# Revision: 0
# Processed by: cddbd v1.5.2PL0 Copyright (c) Steve Scherf et al.
# Submitted via: ExactAudioCopyFreeDBPlugin 1.0
#
DISCID=0a112b10
DTITLE=群星 - Dts 试音宝典22号
DYEAR=2010
DGENRE=Acid
TTITLE0=爱的代价
TTITLE1=珍惜
TTITLE2=往事如昔
TTITLE3=山茶花
TTITLE4=缘来缘去
TTITLE5=干杯朋友
TTITLE6=原乡人
TTITLE7=最后一夜
TTITLE8=梅花三弄
TTITLE9=星
TTITLE10=雅鲁藏布
TTITLE11=橄榄树
TTITLE12=别亦难
TTITLE13=为什么
TTITLE14=雨中飘荡的记忆
TTITLE15=想你想断肠
EXTD=
EXTT0=
EXTT1=
EXTT2=
EXTT3=
EXTT4=
EXTT5=
EXTT6=
EXTT7=
EXTT8=
EXTT9=
EXTT10=
EXTT11=
EXTT12=
EXTT13=
EXTT14=
EXTT15=
PLAYORDER=
